<svg width="32" height="32" fill="none" xmlns="http://www.w3.org/2000/svg"><path d="M15.067 2.699c-2.032.207-3.481.616-5.096 1.437a13.338 13.338 0 0 0-7.248 13.091c.163 1.781.797 3.809 1.656 5.292 1.973 3.409 5.181 5.751 8.954 6.539.98.204 1.449.247 2.667.247 1.493 0 2.357-.118 3.715-.509 1.626-.469 3.311-1.355 4.685-2.465 2.042-1.649 3.672-4.103 4.396-6.616.391-1.358.509-2.222.509-3.715 0-1.218-.043-1.687-.247-2.667-1.142-5.474-5.584-9.682-11.095-10.51-.679-.102-2.393-.176-2.896-.124m2.571 2.768c2.197.337 4.272 1.4 5.884 3.011a10.673 10.673 0 0 1 3.021 5.94c.126.809.126 2.355 0 3.164-.649 4.182-3.733 7.634-7.781 8.709-1.113.295-1.514.345-2.762.345s-1.649-.05-2.762-.345c-4.05-1.075-7.132-4.525-7.781-8.709-.126-.809-.126-2.355 0-3.164a10.641 10.641 0 0 1 3.021-5.94c1.821-1.821 3.985-2.826 6.695-3.112.414-.044 1.927.018 2.465.101" fill="#FD9222" fill-rule="evenodd"/></svg>