<svg width="28" height="28" fill="none" xmlns="http://www.w3.org/2000/svg"><path d="M3.029 6.129a1.175 1.175 0 0 0-.346.307c-.126.18-.14.233-.14.564 0 .331.014.384.14.564.077.109.233.248.347.308l.206.109 10.81-.012 10.811-.012.172-.117c.095-.064.23-.199.3-.299.112-.161.128-.226.128-.545 0-.326-.014-.381-.14-.56a1.175 1.175 0 0 0-.346-.307l-.206-.109H3.235l-.206.109m0 7a1.175 1.175 0 0 0-.346.307c-.126.18-.14.233-.14.564 0 .331.014.384.14.564.077.109.233.248.347.308l.206.109 10.81-.012 10.811-.012.172-.117c.095-.064.23-.199.3-.299.112-.161.128-.226.128-.545 0-.326-.014-.381-.14-.56a1.175 1.175 0 0 0-.346-.307l-.206-.109H3.235l-.206.109m0 7a1.175 1.175 0 0 0-.346.307c-.126.18-.14.233-.14.564 0 .331.014.384.14.564.077.109.233.248.347.308l.206.109 10.81-.012 10.811-.012.172-.117c.095-.064.23-.199.3-.299.112-.161.128-.226.128-.545 0-.326-.014-.381-.14-.56a1.175 1.175 0 0 0-.346-.307l-.206-.109H3.235l-.206.109" fill-rule="evenodd" fill="#000"/></svg>